<?xml version="1.0" encoding="utf-8"?>
<!-- Generator: Adobe Illustrator 17.1.0, SVG Export Plug-In . SVG Version: 6.00 Build 0)  -->
<!DOCTYPE svg PUBLIC "-//W3C//DTD SVG 1.1//EN" "http://www.w3.org/Graphics/SVG/1.1/DTD/svg11.dtd">
<svg version="1.1" id="Layer_1" xmlns="http://www.w3.org/2000/svg" xmlns:xlink="http://www.w3.org/1999/xlink" x="0px" y="0px"
	 viewBox="0 0 69 21" style="enable-background:new 0 0 69 21;" xml:space="preserve">
<style type="text/css">
	.Drop_x0020_Shadow{fill:none;}
	.Round_x0020_Corners_x0020_2_x0020_pt{fill:#FFFFFF;stroke:#231F20;stroke-miterlimit:10;}
	.Live_x0020_Reflect_x0020_X{fill:none;}
	.Bevel_x0020_Soft{fill:url(#SVGID_1_);}
	.Dusk{fill:#FFFFFF;}
	.Foliage_GS{fill:#FFDD00;}
	.Pompadour_GS{fill-rule:evenodd;clip-rule:evenodd;fill:#44ADE2;}
	.st0{fill:#502E5C;}
</style>
<linearGradient id="SVGID_1_" gradientUnits="userSpaceOnUse" x1="0" y1="0" x2="0.7071" y2="0.7071">
	<stop  offset="0" style="stop-color:#DEDFE3"/>
	<stop  offset="0.1783" style="stop-color:#DADBDF"/>
	<stop  offset="0.3611" style="stop-color:#CECFD3"/>
	<stop  offset="0.546" style="stop-color:#B9BCBF"/>
	<stop  offset="0.7324" style="stop-color:#9CA0A2"/>
	<stop  offset="0.9181" style="stop-color:#787D7E"/>
	<stop  offset="1" style="stop-color:#656B6C"/>
</linearGradient>
<g>
	<g>
		<path class="st0" d="M18.479,10.23c0,6.959-4.229,10.649-9.39,10.649C3.75,20.879,0,16.739,0,10.62C0,4.2,3.99,0,9.39,0
			C14.909,0,18.479,4.23,18.479,10.23z M2.79,10.56c0,4.32,2.34,8.19,6.45,8.19c4.14,0,6.479-3.81,6.479-8.4
			c0-4.02-2.1-8.22-6.45-8.22C4.95,2.13,2.79,6.12,2.79,10.56z"/>
		<path class="st0" d="M21.87,0.57c1.26-0.21,2.91-0.39,5.01-0.39c2.58,0,4.47,0.6,5.67,1.68c1.11,0.96,1.77,2.43,1.77,4.23
			c0,1.83-0.54,3.27-1.56,4.32c-1.38,1.47-3.63,2.22-6.18,2.22c-0.78,0-1.5-0.03-2.1-0.18v8.1h-2.61V0.57z M24.479,10.32
			c0.57,0.15,1.29,0.21,2.16,0.21c3.15,0,5.07-1.53,5.07-4.32c0-2.67-1.89-3.96-4.77-3.96c-1.14,0-2.01,0.09-2.46,0.21V10.32z"/>
		<path class="st0" d="M40.439,0.33V12.3c0,4.53,2.01,6.45,4.71,6.45c3,0,4.92-1.98,4.92-6.45V0.33h2.64v11.79
			c0,6.21-3.27,8.76-7.649,8.76c-4.14,0-7.26-2.37-7.26-8.64V0.33H40.439z"/>
		<path class="st0" d="M56.879,17.37c1.17,0.72,2.88,1.32,4.68,1.32c2.67,0,4.23-1.41,4.23-3.45c0-1.89-1.08-2.97-3.81-4.02
			c-3.3-1.17-5.34-2.88-5.34-5.73c0-3.15,2.61-5.49,6.54-5.49c2.07,0,3.57,0.48,4.47,0.99l-0.72,2.13
			c-0.66-0.36-2.01-0.96-3.84-0.96c-2.76,0-3.81,1.65-3.81,3.03c0,1.89,1.23,2.82,4.02,3.9c3.42,1.32,5.16,2.97,5.16,5.94
			c0,3.12-2.31,5.819-7.08,5.819c-1.95,0-4.08-0.57-5.16-1.29L56.879,17.37z"/>
	</g>
</g>
</svg>
